<svg xmlns="http://www.w3.org/2000/svg" width="64" height="64" viewBox="0 0 64 64" fill="none">
  <defs>
    <linearGradient id="syl-c2r-bg" x1="6" y1="6" x2="58" y2="58" gradientUnits="userSpaceOnUse">
      <stop stop-color="#FFF7EA"/>
      <stop offset="0.5" stop-color="#F7EBF7"/>
      <stop offset="1" stop-color="#EDEBFF"/>
    </linearGradient>
    <linearGradient id="syl-c2r-left-page" x1="9" y1="18" x2="31" y2="48" gradientUnits="userSpaceOnUse">
      <stop stop-color="#FFF9F0"/>
      <stop offset="1" stop-color="#DCCFE5"/>
    </linearGradient>
    <linearGradient id="syl-c2r-right-page" x1="33" y1="18" x2="56" y2="47" gradientUnits="userSpaceOnUse">
      <stop stop-color="#E9FAEF"/>
      <stop offset="1" stop-color="#91C8AD"/>
    </linearGradient>
    <linearGradient id="syl-c2r-stone" x1="48" y1="12" x2="19" y2="36" gradientUnits="userSpaceOnUse">
      <stop stop-color="#D8D2CA"/>
      <stop offset="0.48" stop-color="#A49D96"/>
      <stop offset="1" stop-color="#77706C"/>
    </linearGradient>
    <linearGradient id="syl-c2r-brush" x1="18" y1="36" x2="14" y2="42" gradientUnits="userSpaceOnUse">
      <stop stop-color="#BDB6AE"/>
      <stop offset="0.55" stop-color="#928A84"/>
      <stop offset="1" stop-color="#746D69"/>
    </linearGradient>
  </defs>

  <rect x="1" y="1" width="62" height="62" rx="15" fill="url(#syl-c2r-bg)" stroke="#E4D7E8" stroke-width="2"/>
  <path d="M7.5 47.5c8.6-3.9 16.9-1.7 24.4 3.1 7.8-4.9 16.4-7 24.8-3.1" stroke="#594B68" stroke-width="5" stroke-linecap="round" opacity="0.12"/>

  <path d="M7.5 20.2c7.8-4.6 16.2-4.5 24.4 1.1v27.2c-7.9-5-16.1-6.7-24.4-3V20.2Z" fill="url(#syl-c2r-left-page)" stroke="#8E7B9C" stroke-width="1.9" stroke-linejoin="round"/>
  <path d="M31.9 21.3c8.2-5.6 16.8-5.7 24.6-1.1v25.3c-8.5-3.7-16.7-2-24.6 3V21.3Z" fill="url(#syl-c2r-right-page)" stroke="#5E9178" stroke-width="1.9" stroke-linejoin="round"/>
  <path d="M31.9 21.3v27.2" stroke="#E8C98A" stroke-width="2.1" stroke-linecap="round"/>
  <path d="M8 45.5c8.3-3.7 16.3-2 23.9 3 7.9-5 16-6.7 24.3-3" stroke="#FFFDF7" stroke-width="1.4" stroke-linecap="round" opacity="0.8"/>

  <path d="M13 24c4.6-1.7 9-1.1 13.5 1.2M13 29.5c4.5-1.4 8.7-.8 13 1.2M13 35c3.8-1 7.5-.4 11 1" stroke="#806F91" stroke-width="1.7" stroke-linecap="round" opacity="0.72"/>
  <path d="M36.5 24.5c4-1.9 7.6-2.4 11.3-1.8M36.5 29.7c3-1.2 5.9-1.6 8.8-1.2M36.5 35c3.7-1.3 7.1-1.6 10.3-.9M36.5 40c2.8-.8 5.6-.9 8.2-.4" stroke="#5D8F77" stroke-width="1.65" stroke-linecap="round" opacity="0.72"/>
  <path d="M13 39.5q1.25-.35 2.45-.02" stroke="#806F91" stroke-width="1.7" stroke-linecap="round" opacity="0.72"/>
  <g transform="translate(4.3 -2.5)">
    <path d="M47.1 11.6c.7-.4 1.4-.2 1.8.4.3.5.2 1.1-.3 1.5L20.7 36.2l-2.1-2.1 28.5-22.5Z" fill="url(#syl-c2r-stone)" stroke="#756E6A" stroke-width="0.72" stroke-linejoin="round"/>
    <path d="m47.1 11.6-.2 1.8-27.2 22-1.1-1.3 28.5-22.5Z" fill="#E3DDD5" opacity="0.42"/>
    <path d="m46.9 13.4 1.7.1-27.9 22.7-1-0.8 27.2-22Z" fill="#706965" opacity="0.2"/>
    <path d="m18.6 34.1 2.1 2.1-1.72 1.38-2.1-2.1 1.72-1.38Z" fill="#928A84" stroke="#746D69" stroke-width="0.62" stroke-linejoin="round"/>
    <path d="m18.6 34.1 1.05 1.05-1.72 1.38-1.05-1.05 1.72-1.38Z" fill="#C6BFB7" opacity="0.56"/>
    <path d="M16.88 35.48 18.98 37.58 11.15 41.98Z" fill="url(#syl-c2r-brush)" stroke="#746D69" stroke-width="0.68" stroke-linejoin="round"/>
    <path d="M16.88 35.48 17.93 36.53 11.15 41.98Z" fill="#D1CAC2" opacity="0.42"/>
    <path d="M17.93 36.53 18.98 37.58 11.15 41.98Z" fill="#6F6864" opacity="0.2"/>
    <circle cx="41.2" cy="18.2" r="0.34" fill="#77706C" opacity="0.58"/>
    <circle cx="34.7" cy="23.6" r="0.24" fill="#E1DBD3" opacity="0.72"/>
    <circle cx="27.4" cy="29.5" r="0.3" fill="#716A66" opacity="0.48"/>
  </g>
</svg>
